<svg width="25" height="24" viewBox="0 0 25 24" fill="none" xmlns="http://www.w3.org/2000/svg">
<path d="M12.2002 18.75C11.7902 18.75 11.4502 18.41 11.4502 18V15C11.4502 14.59 11.7902 14.25 12.2002 14.25C12.6102 14.25 12.9502 14.59 12.9502 15V18C12.9502 18.41 12.6102 18.75 12.2002 18.75Z" fill="#2A3950"/>
<path d="M17.8002 22.5601H6.60016C4.78016 22.5601 3.12016 21.1601 2.82016 19.3701L1.49016 11.4001C1.27016 10.1601 1.88016 8.57007 2.87016 7.78007L9.80016 2.23007C11.1402 1.15007 13.2502 1.16007 14.6002 2.24007L21.5302 7.78007C22.5102 8.57007 23.1102 10.1601 22.9102 11.4001L21.5802 19.3601C21.2802 21.1301 19.5802 22.5601 17.8002 22.5601ZM12.1902 2.93007C11.6602 2.93007 11.1302 3.09007 10.7402 3.40007L3.81016 8.96007C3.25016 9.41007 2.85016 10.4501 2.97016 11.1601L4.30016 19.1201C4.48016 20.1701 5.53016 21.0601 6.60016 21.0601H17.8002C18.8702 21.0601 19.9202 20.1701 20.1002 19.1101L21.4302 11.1501C21.5402 10.4501 21.1402 9.39007 20.5902 8.95007L13.6602 3.41007C13.2602 3.09007 12.7202 2.93007 12.1902 2.93007Z" fill="#2A3950"/>
</svg>
