<svg width="25" height="24" viewBox="0 0 25 24" fill="none" xmlns="http://www.w3.org/2000/svg">
<path d="M21.8003 7.75H3.80029C3.39029 7.75 3.05029 7.41 3.05029 7C3.05029 6.59 3.39029 6.25 3.80029 6.25H21.8003C22.2103 6.25 22.5503 6.59 22.5503 7C22.5503 7.41 22.2103 7.75 21.8003 7.75Z" fill="#8E8E93"/>
<path d="M21.8003 12.75H3.80029C3.39029 12.75 3.05029 12.41 3.05029 12C3.05029 11.59 3.39029 11.25 3.80029 11.25H21.8003C22.2103 11.25 22.5503 11.59 22.5503 12C22.5503 12.41 22.2103 12.75 21.8003 12.75Z" fill="#8E8E93"/>
<path d="M21.8003 17.75H3.80029C3.39029 17.75 3.05029 17.41 3.05029 17C3.05029 16.59 3.39029 16.25 3.80029 16.25H21.8003C22.2103 16.25 22.5503 16.59 22.5503 17C22.5503 17.41 22.2103 17.75 21.8003 17.75Z" fill="#8E8E93"/>
</svg>
