<svg width="25" height="24" viewBox="0 0 25 24" fill="none" xmlns="http://www.w3.org/2000/svg">
<g clip-path="url(#clip0_104_595)">
<path d="M15.0733 15.9705H10.1262C9.94051 15.9705 9.79004 16.1209 9.79004 16.3066C9.79004 16.4923 9.94051 16.6428 10.1262 16.6428H15.0733C15.259 16.6428 15.4095 16.4923 15.4095 16.3066C15.4095 16.1209 15.259 15.9705 15.0733 15.9705Z" fill="#8E8E93" stroke="#8E8E93" stroke-width="0.2"/>
<path d="M15.0733 14.6643H10.1262C9.94051 14.6643 9.79004 14.8148 9.79004 15.0005C9.79004 15.1862 9.94051 15.3366 10.1262 15.3366H15.0733C15.259 15.3366 15.4095 15.1862 15.4095 15.0005C15.4095 14.8148 15.259 14.6643 15.0733 14.6643Z" fill="#8E8E93" stroke="#8E8E93" stroke-width="0.2"/>
<path d="M24.2639 23.5166H22.9208C22.9208 21.9846 22.9208 18.9582 22.9208 17.4346C22.9208 17.2489 22.7703 17.0984 22.5846 17.0984C22.3989 17.0984 22.2484 17.2489 22.2484 17.4346V18.8488C22.2484 19.8017 21.4723 20.5768 20.5183 20.5768H17.7695L16.7781 18.9077C16.485 18.4138 15.9459 18.1069 15.3714 18.1069H10.075C9.50055 18.1069 8.9615 18.4138 8.6683 18.9076L7.67697 20.5768H4.68186C3.72782 20.5768 2.95169 19.8017 2.95169 18.8488V15.0567C2.95169 14.4865 3.08225 13.9111 3.32893 13.3929L3.92105 12.1533H21.2685H21.2791L21.871 13.3925C22.1179 13.9112 22.2484 14.4866 22.2484 15.0568V15.7111C22.2484 15.8968 22.3989 16.0473 22.5846 16.0473C22.7703 16.0473 22.9208 15.8968 22.9208 15.7111V15.0568C22.9208 14.3872 22.7677 13.7118 22.4779 13.1031L22.0241 12.1534H22.6089C23.4545 12.1534 24.1422 11.4655 24.1422 10.6202C24.1422 9.77469 23.4544 9.08692 22.6089 9.08692H20.5593L19.7189 7.32776C19.3339 6.52115 18.5075 6 17.6136 6H7.58644C6.69259 6 5.86612 6.52115 5.48115 7.32766L4.64075 9.08692H2.59112C1.74562 9.08692 1.05785 9.77474 1.05785 10.6202C1.05785 11.4655 1.74567 12.1534 2.59112 12.1534H3.17593L2.72199 13.1036C2.43245 13.7118 2.27935 14.3872 2.27935 15.0568V18.8489C2.27935 18.9818 2.29302 19.1114 2.31391 19.2385V23.5167H0.936268C0.750567 23.5167 0.600098 23.6672 0.600098 23.8529C0.600098 24.0386 0.750567 24.189 0.936268 24.189H24.2639C24.4496 24.189 24.6 24.0386 24.6 23.8529C24.6 23.6672 24.4496 23.5166 24.2639 23.5166ZM16.3954 11.481C16.4658 10.8298 17.0189 10.3212 17.6885 10.3212C18.3581 10.3212 18.9112 10.8299 18.9815 11.481H16.3954ZM22.609 9.75921C23.0837 9.75921 23.4699 10.1454 23.4699 10.6201C23.4699 11.0948 23.0837 11.481 22.609 11.481H21.7036L20.8806 9.75926H22.609V9.75921ZM6.08876 7.61741C6.36297 7.04364 6.95098 6.67301 7.5869 6.67301H17.6132C18.2491 6.67301 18.8371 7.04364 19.1114 7.61741C19.3008 8.01378 18.4263 6.18405 20.9579 11.481H19.6543C19.5817 10.4588 18.7289 9.64882 17.6885 9.64882C16.6481 9.64882 15.7953 10.4588 15.7226 11.481H4.24221C6.77379 6.18405 5.89929 8.01378 6.08876 7.61741ZM2.59112 11.481C2.1164 11.481 1.73019 11.0948 1.73019 10.6201C1.73019 10.1454 2.1164 9.75921 2.59112 9.75921H4.31954L3.49647 11.4809H2.59112V11.481ZM5.048 23.5166H2.98631V20.5475C3.85895 21.417 4.88856 21.2229 5.04805 21.2492L5.048 23.5166ZM9.24635 19.2509C9.41915 18.96 9.7366 18.7793 10.075 18.7793H15.3715C15.7099 18.7793 16.0273 18.96 16.2001 19.2509V19.251L16.9876 20.5768H8.45892L9.24635 19.2509ZM19.5143 23.5166H5.7204V21.2492C23.7533 21.2493 3.48915 21.2492 19.5143 21.2492V23.5166ZM22.2484 23.5166H20.1867V21.2492H20.5183C21.1978 21.2492 21.811 20.9646 22.2484 20.51V23.5166Z" fill="#8E8E93" stroke="#8E8E93" stroke-width="0.2"/>
<path d="M8.33944 16.3985C8.33944 15.422 7.64301 14.5814 6.6835 14.3998L4.60163 14.0057C4.12877 13.9157 3.68896 14.2786 3.68896 14.7617V15.9652C3.68896 16.3895 4.03421 16.7346 4.45849 16.7346H8.00327C8.18897 16.7346 8.33944 16.5842 8.33944 16.3985ZM4.45849 16.0622C4.40484 16.0622 4.36131 16.0187 4.36131 15.9652V14.7616C4.36131 14.7053 4.40778 14.6644 4.45772 14.6644C4.47273 14.6644 4.3855 14.6497 6.55851 15.0602C7.0873 15.1604 7.49682 15.5595 7.62495 16.0622H4.45849V16.0622Z" fill="#8E8E93" stroke="#8E8E93" stroke-width="0.2"/>
<path d="M21.5108 15.9653V14.7617C21.5108 14.2796 21.0727 13.9163 20.5983 14.0058L18.5163 14.3998C17.5568 14.5815 16.8604 15.4221 16.8604 16.3985C16.8604 16.5842 17.0108 16.7347 17.1965 16.7347H20.7413C21.1656 16.7347 21.5108 16.3896 21.5108 15.9653ZM18.6413 15.0604L20.7233 14.6663C20.7832 14.6551 20.8385 14.7008 20.8385 14.7617V15.9653C20.8385 16.0188 20.7949 16.0624 20.7413 16.0624H17.5748C17.703 15.5596 18.1125 15.1605 18.6413 15.0604Z" fill="#8E8E93" stroke="#8E8E93" stroke-width="0.2"/>
<path d="M4.71484 18.8577C4.71484 19.4213 5.17327 19.8797 5.73687 19.8797C6.29913 19.8797 6.75658 19.4213 6.75658 18.8577C6.75658 18.2941 6.29913 17.8357 5.73687 17.8357C5.17327 17.8357 4.71484 18.2941 4.71484 18.8577ZM6.08418 18.8577C6.08418 19.0505 5.92835 19.2074 5.73682 19.2074C5.544 19.2074 5.38719 19.0505 5.38719 18.8577C5.38719 18.6649 5.544 18.5081 5.73682 18.5081C5.92835 18.5081 6.08418 18.6649 6.08418 18.8577Z" fill="#8E8E93" stroke="#8E8E93" stroke-width="0.2"/>
<path d="M18.4438 18.8577C18.4438 19.4213 18.9023 19.8797 19.4659 19.8797C20.0281 19.8797 20.4856 19.4213 20.4856 18.8577C20.4856 18.2941 20.0281 17.8357 19.4659 17.8357C18.9023 17.8357 18.4438 18.2941 18.4438 18.8577ZM19.8132 18.8577C19.8132 19.0505 19.6574 19.2074 19.4658 19.2074C19.273 19.2074 19.1162 19.0505 19.1162 18.8577C19.1162 18.6649 19.273 18.5081 19.4658 18.5081C19.6574 18.5081 19.8132 18.6649 19.8132 18.8577Z" fill="#8E8E93" stroke="#8E8E93" stroke-width="0.2"/>
</g>
<defs>
<clipPath id="clip0_104_595">
<rect width="24" height="24" fill="white" transform="translate(0.600098)"/>
</clipPath>
</defs>
</svg>
