<svg width="25" height="24" viewBox="0 0 25 24" fill="none" xmlns="http://www.w3.org/2000/svg">
<path d="M16.3993 1H8.44207C8.15964 1 7.93066 1.22897 7.93066 1.51141V2.90237C7.93258 3.03728 7.98772 3.16591 8.08408 3.26036L10.3955 5.57183C10.4949 5.67327 10.632 5.72889 10.774 5.72524H11.9092V6.19571C10.848 6.58323 10.3019 7.75759 10.6894 8.8188C10.9604 9.56072 11.6342 10.0804 12.4207 10.1539C13.5504 10.1539 14.4662 9.23802 14.4662 8.10829C14.4662 7.82586 14.2373 7.59689 13.9548 7.59689C13.6724 7.59689 13.4434 7.82586 13.4434 8.10829C13.4434 8.67315 12.9855 9.13106 12.4207 9.13106C11.8755 8.98291 11.5538 8.42093 11.7019 7.87586C11.7971 7.52574 12.0705 7.25227 12.4207 7.15711H12.4002C12.6826 7.15711 12.9116 6.92813 12.9116 6.6457V5.7252H14.0469C14.1803 5.72601 14.3088 5.67462 14.4049 5.58199L16.7573 3.27057C16.8561 3.17368 16.9115 3.04083 16.9107 2.90237V1.51141C16.9107 1.22897 16.6817 1 16.3993 1ZM15.8879 2.67738L13.8424 4.7229H10.9683L8.95348 2.68759V2.02276H15.8879V2.67738Z" fill="#8E8E93"/>
<path d="M22.4237 12.9871H20.5008L15.2233 9.22325C14.9917 9.05943 14.6711 9.11437 14.5073 9.34599C14.3436 9.5776 14.3985 9.89814 14.6301 10.0619L18.7212 12.9462H6.0694L10.1605 10.0619C10.3921 9.8981 10.4471 9.57755 10.2832 9.34599C10.1194 9.11442 9.79887 9.05943 9.56731 9.22325L4.28976 12.9871H2.37713C2.0947 12.9871 1.86572 13.2161 1.86572 13.4985V22.4887C1.86572 22.7712 2.0947 23.0002 2.37713 23.0002H22.4236C22.706 23.0002 22.935 22.7712 22.935 22.4887V13.4576C22.9137 13.1912 22.6908 12.9862 22.4237 12.9871ZM21.9122 21.9773H2.88853V14.0099H21.9122V21.9773Z" fill="#8E8E93"/>
<path d="M5.26141 16.0554C4.97897 16.0554 4.75 16.2844 4.75 16.5668V19.4101C4.75 19.6926 4.97897 19.9215 5.26141 19.9215C5.54384 19.9215 5.77281 19.6926 5.77281 19.4101V16.5259C5.75143 16.2596 5.52864 16.0546 5.26141 16.0554Z" fill="#8E8E93"/>
<path d="M8.13543 16.0554C7.853 16.0554 7.62402 16.2844 7.62402 16.5668V19.4101C7.62402 19.6926 7.853 19.9215 8.13543 19.9215C8.41786 19.9215 8.64684 19.6926 8.64684 19.4101V16.5259C8.62545 16.2596 8.40261 16.0546 8.13543 16.0554Z" fill="#8E8E93"/>
<path d="M10.9992 16.0554C10.7168 16.0554 10.4878 16.2844 10.4878 16.5668V19.4101C10.4878 19.6926 10.7168 19.9215 10.9992 19.9215C11.2816 19.9215 11.5106 19.6926 11.5106 19.4101V16.5259C11.4892 16.2596 11.2664 16.0546 10.9992 16.0554Z" fill="#8E8E93"/>
<path d="M13.8425 16.0554C13.56 16.0554 13.3311 16.2844 13.3311 16.5668V19.4101C13.3311 19.6926 13.56 19.9215 13.8425 19.9215C14.1249 19.9215 14.3539 19.6926 14.3539 19.4101V16.5259C14.3325 16.2596 14.1096 16.0546 13.8425 16.0554Z" fill="#8E8E93"/>
<path d="M16.696 16.0554C16.4135 16.0554 16.1846 16.2844 16.1846 16.5668V19.4101C16.1846 19.6926 16.4135 19.9215 16.696 19.9215C16.9784 19.9215 17.2074 19.6926 17.2074 19.4101V16.5259C17.186 16.2596 16.9632 16.0546 16.696 16.0554Z" fill="#8E8E93"/>
<path d="M19.5392 16.0554C19.2568 16.0554 19.0278 16.2844 19.0278 16.5668V19.4101C19.0278 19.6926 19.2568 19.9215 19.5392 19.9215C19.8217 19.9215 20.0506 19.6926 20.0506 19.4101V16.5259C20.0293 16.2596 19.8064 16.0546 19.5392 16.0554Z" fill="#8E8E93"/>
</svg>
