<svg width="20" height="21" viewBox="0 0 20 21" fill="none" xmlns="http://www.w3.org/2000/svg">
<path d="M10.0004 12.7395C8.22539 12.7395 6.77539 11.2979 6.77539 9.51452C6.77539 7.73118 8.22539 6.29785 10.0004 6.29785C11.7754 6.29785 13.2254 7.73952 13.2254 9.52285C13.2254 11.3062 11.7754 12.7395 10.0004 12.7395ZM10.0004 7.54785C8.91706 7.54785 8.02539 8.43119 8.02539 9.52285C8.02539 10.6145 8.90872 11.4979 10.0004 11.4979C11.0921 11.4979 11.9754 10.6145 11.9754 9.52285C11.9754 8.43119 11.0837 7.54785 10.0004 7.54785Z" fill="#2A3950"/>
<path d="M10.0004 19.8978C8.76706 19.8978 7.52539 19.4311 6.55872 18.5061C4.10039 16.1394 1.38372 12.3644 2.40872 7.87278C3.33372 3.79778 6.89206 1.97278 10.0004 1.97278C10.0004 1.97278 10.0004 1.97278 10.0087 1.97278C13.1171 1.97278 16.6754 3.79778 17.6004 7.88111C18.6171 12.3728 15.9004 16.1394 13.4421 18.5061C12.4754 19.4311 11.2337 19.8978 10.0004 19.8978ZM10.0004 3.22278C7.57539 3.22278 4.45872 4.51444 3.63372 8.14778C2.73372 12.0728 5.20039 15.4561 7.43372 17.5978C8.87539 18.9894 11.1337 18.9894 12.5754 17.5978C14.8004 15.4561 17.2671 12.0728 16.3837 8.14778C15.5504 4.51444 12.4254 3.22278 10.0004 3.22278Z" fill="#2A3950"/>
</svg>
